<svg width="94" height="94" viewBox="0 0 94 94" fill="none" xmlns="http://www.w3.org/2000/svg">
<path d="M46.9998 86.1667C45.3026 86.1667 43.7686 85.7587 42.3978 84.9427C41.0269 84.1268 39.9498 83.0334 39.1665 81.6625C37.0123 81.6625 35.1682 80.8955 33.6342 79.3615C32.1002 77.8275 31.3332 75.9834 31.3332 73.8292V59.925C27.4818 57.3792 24.3974 54.0174 22.08 49.8396C19.7627 45.6618 18.604 41.125 18.604 36.2292C18.604 28.3306 21.362 21.6233 26.878 16.1073C32.3939 10.5914 39.1012 7.83337 46.9998 7.83337C54.8984 7.83337 61.6057 10.5914 67.1217 16.1073C72.6377 21.6233 75.3957 28.3306 75.3957 36.2292C75.3957 41.2556 74.237 45.825 71.9196 49.9375C69.6023 54.05 66.5179 57.3792 62.6665 59.925V73.8292C62.6665 75.9834 61.8995 77.8275 60.3655 79.3615C58.8314 80.8955 56.9873 81.6625 54.8332 81.6625C54.0498 83.0334 52.9728 84.1268 51.6019 84.9427C50.2311 85.7587 48.6971 86.1667 46.9998 86.1667ZM39.1665 73.8292H54.8332V70.3042H39.1665V73.8292ZM39.1665 66.3875H54.8332V62.6667H39.1665V66.3875ZM38.3832 54.8334H44.0623V44.2584L35.4457 35.6417L39.5582 31.5292L46.9998 38.9709L54.4415 31.5292L58.554 35.6417L49.9373 44.2584V54.8334H55.6165C59.1415 53.1362 62.0137 50.6393 64.2332 47.3428C66.4526 44.0462 67.5623 40.3417 67.5623 36.2292C67.5623 30.4848 65.5714 25.6216 61.5894 21.6396C57.6075 17.6577 52.7443 15.6667 46.9998 15.6667C41.2554 15.6667 36.3922 17.6577 32.4103 21.6396C28.4283 25.6216 26.4373 30.4848 26.4373 36.2292C26.4373 40.3417 27.5471 44.0462 29.7665 47.3428C31.9859 50.6393 34.8582 53.1362 38.3832 54.8334Z" fill="#E3E3E3"/>
</svg>
