<svg width="32" height="33" viewBox="0 0 32 33" fill="none" xmlns="http://www.w3.org/2000/svg">
<path d="M22 22V11L16.6667 16.5L22 22ZM6.66667 28.875C5.93333 28.875 5.30556 28.6057 4.78333 28.0672C4.26111 27.5286 4 26.8813 4 26.125V6.875C4 6.11875 4.26111 5.47135 4.78333 4.93281C5.30556 4.39427 5.93333 4.125 6.66667 4.125H25.3333C26.0667 4.125 26.6944 4.39427 27.2167 4.93281C27.7389 5.47135 28 6.11875 28 6.875V26.125C28 26.8813 27.7389 27.5286 27.2167 28.0672C26.6944 28.6057 26.0667 28.875 25.3333 28.875H6.66667ZM10.6667 26.125V6.875H6.66667V26.125H10.6667ZM13.3333 26.125H25.3333V6.875H13.3333V26.125Z" fill="#A0A0A0"/>
</svg>
